%TF.GenerationSoftware,KiCad,Pcbnew,(5.1.8)-1*%
%TF.CreationDate,2020-11-16T23:50:31-05:00*%
%TF.ProjectId,podemu_customboard,706f6465-6d75-45f6-9375-73746f6d626f,rev?*%
%TF.SameCoordinates,Original*%
%TF.FileFunction,Legend,Top*%
%TF.FilePolarity,Positive*%
%FSLAX46Y46*%
G04 Gerber Fmt 4.6, Leading zero omitted, Abs format (unit mm)*
G04 Created by KiCad (PCBNEW (5.1.8)-1) date 2020-11-16 23:50:31*
%MOMM*%
%LPD*%
G01*
G04 APERTURE LIST*
%ADD10C,0.150000*%
%ADD11C,0.125000*%
%ADD12C,0.200000*%
%ADD13C,0.127000*%
%ADD14C,0.120000*%
%ADD15C,0.100000*%
G04 APERTURE END LIST*
D10*
X166679619Y-96505238D02*
X167679619Y-96505238D01*
X167679619Y-96743333D01*
X167632000Y-96886190D01*
X167536761Y-96981428D01*
X167441523Y-97029047D01*
X167251047Y-97076666D01*
X167108190Y-97076666D01*
X166917714Y-97029047D01*
X166822476Y-96981428D01*
X166727238Y-96886190D01*
X166679619Y-96743333D01*
X166679619Y-96505238D01*
X167679619Y-97695714D02*
X167679619Y-97886190D01*
X167632000Y-97981428D01*
X167536761Y-98076666D01*
X167346285Y-98124285D01*
X167012952Y-98124285D01*
X166822476Y-98076666D01*
X166727238Y-97981428D01*
X166679619Y-97886190D01*
X166679619Y-97695714D01*
X166727238Y-97600476D01*
X166822476Y-97505238D01*
X167012952Y-97457619D01*
X167346285Y-97457619D01*
X167536761Y-97505238D01*
X167632000Y-97600476D01*
X167679619Y-97695714D01*
X166679619Y-98552857D02*
X167679619Y-98552857D01*
X166965333Y-98886190D01*
X167679619Y-99219523D01*
X166679619Y-99219523D01*
X166965333Y-100410000D02*
X166965333Y-100886190D01*
X166679619Y-100314761D02*
X167679619Y-100648095D01*
X166679619Y-100981428D01*
X166679619Y-101314761D02*
X167679619Y-101314761D01*
X166679619Y-101886190D01*
X167679619Y-101886190D01*
X166965333Y-102314761D02*
X166965333Y-102790952D01*
X166679619Y-102219523D02*
X167679619Y-102552857D01*
X166679619Y-102886190D01*
X167679619Y-103076666D02*
X167679619Y-103648095D01*
X166679619Y-103362380D02*
X167679619Y-103362380D01*
X166965333Y-103933809D02*
X166965333Y-104410000D01*
X166679619Y-103838571D02*
X167679619Y-104171904D01*
X166679619Y-104505238D01*
X166679619Y-105314761D02*
X166679619Y-104838571D01*
X167679619Y-104838571D01*
X166965333Y-105600476D02*
X166965333Y-106076666D01*
X166679619Y-105505238D02*
X167679619Y-105838571D01*
X166679619Y-106171904D01*
X166679619Y-107267142D02*
X167679619Y-107267142D01*
X166679619Y-107838571D01*
X167679619Y-107838571D01*
X167679619Y-108505238D02*
X167679619Y-108695714D01*
X167632000Y-108790952D01*
X167536761Y-108886190D01*
X167346285Y-108933809D01*
X167012952Y-108933809D01*
X166822476Y-108886190D01*
X166727238Y-108790952D01*
X166679619Y-108695714D01*
X166679619Y-108505238D01*
X166727238Y-108410000D01*
X166822476Y-108314761D01*
X167012952Y-108267142D01*
X167346285Y-108267142D01*
X167536761Y-108314761D01*
X167632000Y-108410000D01*
X167679619Y-108505238D01*
X167679619Y-109219523D02*
X166679619Y-109552857D01*
X167679619Y-109886190D01*
X167584380Y-110933809D02*
X167632000Y-110981428D01*
X167679619Y-111076666D01*
X167679619Y-111314761D01*
X167632000Y-111410000D01*
X167584380Y-111457619D01*
X167489142Y-111505238D01*
X167393904Y-111505238D01*
X167251047Y-111457619D01*
X166679619Y-110886190D01*
X166679619Y-111505238D01*
X167679619Y-112124285D02*
X167679619Y-112219523D01*
X167632000Y-112314761D01*
X167584380Y-112362380D01*
X167489142Y-112410000D01*
X167298666Y-112457619D01*
X167060571Y-112457619D01*
X166870095Y-112410000D01*
X166774857Y-112362380D01*
X166727238Y-112314761D01*
X166679619Y-112219523D01*
X166679619Y-112124285D01*
X166727238Y-112029047D01*
X166774857Y-111981428D01*
X166870095Y-111933809D01*
X167060571Y-111886190D01*
X167298666Y-111886190D01*
X167489142Y-111933809D01*
X167584380Y-111981428D01*
X167632000Y-112029047D01*
X167679619Y-112124285D01*
X167584380Y-112838571D02*
X167632000Y-112886190D01*
X167679619Y-112981428D01*
X167679619Y-113219523D01*
X167632000Y-113314761D01*
X167584380Y-113362380D01*
X167489142Y-113410000D01*
X167393904Y-113410000D01*
X167251047Y-113362380D01*
X166679619Y-112790952D01*
X166679619Y-113410000D01*
X167679619Y-114029047D02*
X167679619Y-114124285D01*
X167632000Y-114219523D01*
X167584380Y-114267142D01*
X167489142Y-114314761D01*
X167298666Y-114362380D01*
X167060571Y-114362380D01*
X166870095Y-114314761D01*
X166774857Y-114267142D01*
X166727238Y-114219523D01*
X166679619Y-114124285D01*
X166679619Y-114029047D01*
X166727238Y-113933809D01*
X166774857Y-113886190D01*
X166870095Y-113838571D01*
X167060571Y-113790952D01*
X167298666Y-113790952D01*
X167489142Y-113838571D01*
X167584380Y-113886190D01*
X167632000Y-113933809D01*
X167679619Y-114029047D01*
X181919619Y-96504761D02*
X182919619Y-96504761D01*
X182919619Y-96885714D01*
X182872000Y-96980952D01*
X182824380Y-97028571D01*
X182729142Y-97076190D01*
X182586285Y-97076190D01*
X182491047Y-97028571D01*
X182443428Y-96980952D01*
X182395809Y-96885714D01*
X182395809Y-96504761D01*
X181919619Y-97647619D02*
X181967238Y-97552380D01*
X182014857Y-97504761D01*
X182110095Y-97457142D01*
X182395809Y-97457142D01*
X182491047Y-97504761D01*
X182538666Y-97552380D01*
X182586285Y-97647619D01*
X182586285Y-97790476D01*
X182538666Y-97885714D01*
X182491047Y-97933333D01*
X182395809Y-97980952D01*
X182110095Y-97980952D01*
X182014857Y-97933333D01*
X181967238Y-97885714D01*
X181919619Y-97790476D01*
X181919619Y-97647619D01*
X181919619Y-98838095D02*
X182919619Y-98838095D01*
X181967238Y-98838095D02*
X181919619Y-98742857D01*
X181919619Y-98552380D01*
X181967238Y-98457142D01*
X182014857Y-98409523D01*
X182110095Y-98361904D01*
X182395809Y-98361904D01*
X182491047Y-98409523D01*
X182538666Y-98457142D01*
X182586285Y-98552380D01*
X182586285Y-98742857D01*
X182538666Y-98838095D01*
X182443428Y-99314285D02*
X182443428Y-99647619D01*
X181919619Y-99790476D02*
X181919619Y-99314285D01*
X182919619Y-99314285D01*
X182919619Y-99790476D01*
X181919619Y-100219047D02*
X182586285Y-100219047D01*
X182491047Y-100219047D02*
X182538666Y-100266666D01*
X182586285Y-100361904D01*
X182586285Y-100504761D01*
X182538666Y-100600000D01*
X182443428Y-100647619D01*
X181919619Y-100647619D01*
X182443428Y-100647619D02*
X182538666Y-100695238D01*
X182586285Y-100790476D01*
X182586285Y-100933333D01*
X182538666Y-101028571D01*
X182443428Y-101076190D01*
X181919619Y-101076190D01*
X182586285Y-101980952D02*
X181919619Y-101980952D01*
X182586285Y-101552380D02*
X182062476Y-101552380D01*
X181967238Y-101600000D01*
X181919619Y-101695238D01*
X181919619Y-101838095D01*
X181967238Y-101933333D01*
X182014857Y-101980952D01*
X181919619Y-103790476D02*
X182395809Y-103457142D01*
X181919619Y-103219047D02*
X182919619Y-103219047D01*
X182919619Y-103600000D01*
X182872000Y-103695238D01*
X182824380Y-103742857D01*
X182729142Y-103790476D01*
X182586285Y-103790476D01*
X182491047Y-103742857D01*
X182443428Y-103695238D01*
X182395809Y-103600000D01*
X182395809Y-103219047D01*
X181919619Y-104219047D02*
X182919619Y-104219047D01*
X181919619Y-104790476D01*
X182919619Y-104790476D01*
X182919619Y-105742857D02*
X182919619Y-105266666D01*
X182443428Y-105219047D01*
X182491047Y-105266666D01*
X182538666Y-105361904D01*
X182538666Y-105600000D01*
X182491047Y-105695238D01*
X182443428Y-105742857D01*
X182348190Y-105790476D01*
X182110095Y-105790476D01*
X182014857Y-105742857D01*
X181967238Y-105695238D01*
X181919619Y-105600000D01*
X181919619Y-105361904D01*
X181967238Y-105266666D01*
X182014857Y-105219047D01*
X182824380Y-106171428D02*
X182872000Y-106219047D01*
X182919619Y-106314285D01*
X182919619Y-106552380D01*
X182872000Y-106647619D01*
X182824380Y-106695238D01*
X182729142Y-106742857D01*
X182633904Y-106742857D01*
X182491047Y-106695238D01*
X181919619Y-106123809D01*
X181919619Y-106742857D01*
D11*
X177419047Y-141740000D02*
X177371428Y-141692380D01*
X177300000Y-141692380D01*
X177228571Y-141740000D01*
X177180952Y-141835238D01*
X177157142Y-141930476D01*
X177133333Y-142120952D01*
X177133333Y-142263809D01*
X177157142Y-142454285D01*
X177180952Y-142549523D01*
X177228571Y-142644761D01*
X177300000Y-142692380D01*
X177347619Y-142692380D01*
X177419047Y-142644761D01*
X177442857Y-142597142D01*
X177442857Y-142263809D01*
X177347619Y-142263809D01*
X177657142Y-142692380D02*
X177657142Y-141692380D01*
X177942857Y-142692380D01*
X177942857Y-141692380D01*
X178180952Y-142692380D02*
X178180952Y-141692380D01*
X178300000Y-141692380D01*
X178371428Y-141740000D01*
X178419047Y-141835238D01*
X178442857Y-141930476D01*
X178466666Y-142120952D01*
X178466666Y-142263809D01*
X178442857Y-142454285D01*
X178419047Y-142549523D01*
X178371428Y-142644761D01*
X178300000Y-142692380D01*
X178180952Y-142692380D01*
D12*
%TO.C,U2*%
X171352000Y-119904000D02*
G75*
G03*
X171352000Y-119904000I-100000J0D01*
G01*
D13*
X173252000Y-122404000D02*
X176252000Y-122404000D01*
X176252000Y-119404000D02*
X173252000Y-119404000D01*
D14*
%TO.C,L R*%
X182892000Y-145332000D02*
X182892000Y-143212000D01*
X178832000Y-145332000D02*
X182892000Y-145332000D01*
X178832000Y-143212000D02*
X182892000Y-143212000D01*
X178832000Y-145332000D02*
X178832000Y-143212000D01*
X177832000Y-145332000D02*
X176772000Y-145332000D01*
X176772000Y-145332000D02*
X176772000Y-144272000D01*
%TO.C,C5*%
X179054000Y-98294000D02*
X177054000Y-98294000D01*
X177054000Y-100334000D02*
X179054000Y-100334000D01*
%TO.C,R8*%
X179054000Y-106480000D02*
X177054000Y-106480000D01*
X177054000Y-104340000D02*
X179054000Y-104340000D01*
%TO.C,R2*%
X179054000Y-103432000D02*
X177054000Y-103432000D01*
X177054000Y-101292000D02*
X179054000Y-101292000D01*
%TO.C,C4*%
X170450000Y-109986000D02*
X172450000Y-109986000D01*
X172450000Y-107946000D02*
X170450000Y-107946000D01*
%TO.C,C6*%
X172450000Y-98294000D02*
X170450000Y-98294000D01*
X170450000Y-100334000D02*
X172450000Y-100334000D01*
%TO.C,C7*%
X177054000Y-109986000D02*
X179054000Y-109986000D01*
X179054000Y-107946000D02*
X177054000Y-107946000D01*
%TO.C,C8*%
X169422000Y-122158000D02*
X169422000Y-120158000D01*
X167382000Y-120158000D02*
X167382000Y-122158000D01*
%TO.C,220uF*%
X178546000Y-126482000D02*
X178546000Y-131582000D01*
X178586000Y-126482000D02*
X178586000Y-128052000D01*
X178586000Y-130012000D02*
X178586000Y-131582000D01*
X178626000Y-126483000D02*
X178626000Y-128052000D01*
X178626000Y-130012000D02*
X178626000Y-131581000D01*
X178666000Y-126484000D02*
X178666000Y-128052000D01*
X178666000Y-130012000D02*
X178666000Y-131580000D01*
X178706000Y-126486000D02*
X178706000Y-128052000D01*
X178706000Y-130012000D02*
X178706000Y-131578000D01*
X178746000Y-126489000D02*
X178746000Y-128052000D01*
X178746000Y-130012000D02*
X178746000Y-131575000D01*
X178786000Y-126493000D02*
X178786000Y-128052000D01*
X178786000Y-130012000D02*
X178786000Y-131571000D01*
X178826000Y-126497000D02*
X178826000Y-128052000D01*
X178826000Y-130012000D02*
X178826000Y-131567000D01*
X178866000Y-126501000D02*
X178866000Y-128052000D01*
X178866000Y-130012000D02*
X178866000Y-131563000D01*
X178906000Y-126507000D02*
X178906000Y-128052000D01*
X178906000Y-130012000D02*
X178906000Y-131557000D01*
X178946000Y-126513000D02*
X178946000Y-128052000D01*
X178946000Y-130012000D02*
X178946000Y-131551000D01*
X178986000Y-126519000D02*
X178986000Y-128052000D01*
X178986000Y-130012000D02*
X178986000Y-131545000D01*
X179026000Y-126526000D02*
X179026000Y-128052000D01*
X179026000Y-130012000D02*
X179026000Y-131538000D01*
X179066000Y-126534000D02*
X179066000Y-128052000D01*
X179066000Y-130012000D02*
X179066000Y-131530000D01*
X179106000Y-126543000D02*
X179106000Y-128052000D01*
X179106000Y-130012000D02*
X179106000Y-131521000D01*
X179146000Y-126552000D02*
X179146000Y-128052000D01*
X179146000Y-130012000D02*
X179146000Y-131512000D01*
X179186000Y-126562000D02*
X179186000Y-128052000D01*
X179186000Y-130012000D02*
X179186000Y-131502000D01*
X179226000Y-126572000D02*
X179226000Y-128052000D01*
X179226000Y-130012000D02*
X179226000Y-131492000D01*
X179267000Y-126584000D02*
X179267000Y-128052000D01*
X179267000Y-130012000D02*
X179267000Y-131480000D01*
X179307000Y-126596000D02*
X179307000Y-128052000D01*
X179307000Y-130012000D02*
X179307000Y-131468000D01*
X179347000Y-126608000D02*
X179347000Y-128052000D01*
X179347000Y-130012000D02*
X179347000Y-131456000D01*
X179387000Y-126622000D02*
X179387000Y-128052000D01*
X179387000Y-130012000D02*
X179387000Y-131442000D01*
X179427000Y-126636000D02*
X179427000Y-128052000D01*
X179427000Y-130012000D02*
X179427000Y-131428000D01*
X179467000Y-126650000D02*
X179467000Y-128052000D01*
X179467000Y-130012000D02*
X179467000Y-131414000D01*
X179507000Y-126666000D02*
X179507000Y-128052000D01*
X179507000Y-130012000D02*
X179507000Y-131398000D01*
X179547000Y-126682000D02*
X179547000Y-128052000D01*
X179547000Y-130012000D02*
X179547000Y-131382000D01*
X179587000Y-126699000D02*
X179587000Y-128052000D01*
X179587000Y-130012000D02*
X179587000Y-131365000D01*
X179627000Y-126717000D02*
X179627000Y-128052000D01*
X179627000Y-130012000D02*
X179627000Y-131347000D01*
X179667000Y-126736000D02*
X179667000Y-128052000D01*
X179667000Y-130012000D02*
X179667000Y-131328000D01*
X179707000Y-126756000D02*
X179707000Y-128052000D01*
X179707000Y-130012000D02*
X179707000Y-131308000D01*
X179747000Y-126776000D02*
X179747000Y-128052000D01*
X179747000Y-130012000D02*
X179747000Y-131288000D01*
X179787000Y-126798000D02*
X179787000Y-128052000D01*
X179787000Y-130012000D02*
X179787000Y-131266000D01*
X179827000Y-126820000D02*
X179827000Y-128052000D01*
X179827000Y-130012000D02*
X179827000Y-131244000D01*
X179867000Y-126843000D02*
X179867000Y-128052000D01*
X179867000Y-130012000D02*
X179867000Y-131221000D01*
X179907000Y-126867000D02*
X179907000Y-128052000D01*
X179907000Y-130012000D02*
X179907000Y-131197000D01*
X179947000Y-126892000D02*
X179947000Y-128052000D01*
X179947000Y-130012000D02*
X179947000Y-131172000D01*
X179987000Y-126919000D02*
X179987000Y-128052000D01*
X179987000Y-130012000D02*
X179987000Y-131145000D01*
X180027000Y-126946000D02*
X180027000Y-128052000D01*
X180027000Y-130012000D02*
X180027000Y-131118000D01*
X180067000Y-126974000D02*
X180067000Y-128052000D01*
X180067000Y-130012000D02*
X180067000Y-131090000D01*
X180107000Y-127004000D02*
X180107000Y-128052000D01*
X180107000Y-130012000D02*
X180107000Y-131060000D01*
X180147000Y-127035000D02*
X180147000Y-128052000D01*
X180147000Y-130012000D02*
X180147000Y-131029000D01*
X180187000Y-127067000D02*
X180187000Y-128052000D01*
X180187000Y-130012000D02*
X180187000Y-130997000D01*
X180227000Y-127100000D02*
X180227000Y-128052000D01*
X180227000Y-130012000D02*
X180227000Y-130964000D01*
X180267000Y-127135000D02*
X180267000Y-128052000D01*
X180267000Y-130012000D02*
X180267000Y-130929000D01*
X180307000Y-127171000D02*
X180307000Y-128052000D01*
X180307000Y-130012000D02*
X180307000Y-130893000D01*
X180347000Y-127209000D02*
X180347000Y-128052000D01*
X180347000Y-130012000D02*
X180347000Y-130855000D01*
X180387000Y-127249000D02*
X180387000Y-128052000D01*
X180387000Y-130012000D02*
X180387000Y-130815000D01*
X180427000Y-127290000D02*
X180427000Y-128052000D01*
X180427000Y-130012000D02*
X180427000Y-130774000D01*
X180467000Y-127333000D02*
X180467000Y-128052000D01*
X180467000Y-130012000D02*
X180467000Y-130731000D01*
X180507000Y-127378000D02*
X180507000Y-128052000D01*
X180507000Y-130012000D02*
X180507000Y-130686000D01*
X180547000Y-127426000D02*
X180547000Y-130638000D01*
X180587000Y-127476000D02*
X180587000Y-130588000D01*
X180627000Y-127528000D02*
X180627000Y-130536000D01*
X180667000Y-127584000D02*
X180667000Y-130480000D01*
X180707000Y-127642000D02*
X180707000Y-130422000D01*
X180747000Y-127705000D02*
X180747000Y-130359000D01*
X180787000Y-127771000D02*
X180787000Y-130293000D01*
X180827000Y-127843000D02*
X180827000Y-130221000D01*
X180867000Y-127920000D02*
X180867000Y-130144000D01*
X180907000Y-128004000D02*
X180907000Y-130060000D01*
X180947000Y-128098000D02*
X180947000Y-129966000D01*
X180987000Y-128203000D02*
X180987000Y-129861000D01*
X181027000Y-128325000D02*
X181027000Y-129739000D01*
X181067000Y-128473000D02*
X181067000Y-129591000D01*
X181107000Y-128678000D02*
X181107000Y-129386000D01*
X175346000Y-129032000D02*
X176546000Y-129032000D01*
X175946000Y-128382000D02*
X175946000Y-129682000D01*
X180851722Y-130211723D02*
G75*
G03*
X180851580Y-127852000I-2305722J1179723D01*
G01*
X180851722Y-130211723D02*
G75*
G02*
X176240420Y-130212000I-2305722J1179723D01*
G01*
X180851722Y-127852277D02*
G75*
G03*
X176240420Y-127852000I-2305722J-1179723D01*
G01*
X173812000Y-129682000D02*
X173812000Y-128382000D01*
X174412000Y-129032000D02*
X173212000Y-129032000D01*
X168651000Y-129386000D02*
X168651000Y-128678000D01*
X168691000Y-129591000D02*
X168691000Y-128473000D01*
X168731000Y-129739000D02*
X168731000Y-128325000D01*
X168771000Y-129861000D02*
X168771000Y-128203000D01*
X168811000Y-129966000D02*
X168811000Y-128098000D01*
X168851000Y-130060000D02*
X168851000Y-128004000D01*
X168891000Y-130144000D02*
X168891000Y-127920000D01*
X168931000Y-130221000D02*
X168931000Y-127843000D01*
X168971000Y-130293000D02*
X168971000Y-127771000D01*
X169011000Y-130359000D02*
X169011000Y-127705000D01*
X169051000Y-130422000D02*
X169051000Y-127642000D01*
X169091000Y-130480000D02*
X169091000Y-127584000D01*
X169131000Y-130536000D02*
X169131000Y-127528000D01*
X169171000Y-130588000D02*
X169171000Y-127476000D01*
X169211000Y-130638000D02*
X169211000Y-127426000D01*
X169251000Y-128052000D02*
X169251000Y-127378000D01*
X169251000Y-130686000D02*
X169251000Y-130012000D01*
X169291000Y-128052000D02*
X169291000Y-127333000D01*
X169291000Y-130731000D02*
X169291000Y-130012000D01*
X169331000Y-128052000D02*
X169331000Y-127290000D01*
X169331000Y-130774000D02*
X169331000Y-130012000D01*
X169371000Y-128052000D02*
X169371000Y-127249000D01*
X169371000Y-130815000D02*
X169371000Y-130012000D01*
X169411000Y-128052000D02*
X169411000Y-127209000D01*
X169411000Y-130855000D02*
X169411000Y-130012000D01*
X169451000Y-128052000D02*
X169451000Y-127171000D01*
X169451000Y-130893000D02*
X169451000Y-130012000D01*
X169491000Y-128052000D02*
X169491000Y-127135000D01*
X169491000Y-130929000D02*
X169491000Y-130012000D01*
X169531000Y-128052000D02*
X169531000Y-127100000D01*
X169531000Y-130964000D02*
X169531000Y-130012000D01*
X169571000Y-128052000D02*
X169571000Y-127067000D01*
X169571000Y-130997000D02*
X169571000Y-130012000D01*
X169611000Y-128052000D02*
X169611000Y-127035000D01*
X169611000Y-131029000D02*
X169611000Y-130012000D01*
X169651000Y-128052000D02*
X169651000Y-127004000D01*
X169651000Y-131060000D02*
X169651000Y-130012000D01*
X169691000Y-128052000D02*
X169691000Y-126974000D01*
X169691000Y-131090000D02*
X169691000Y-130012000D01*
X169731000Y-128052000D02*
X169731000Y-126946000D01*
X169731000Y-131118000D02*
X169731000Y-130012000D01*
X169771000Y-128052000D02*
X169771000Y-126919000D01*
X169771000Y-131145000D02*
X169771000Y-130012000D01*
X169811000Y-128052000D02*
X169811000Y-126892000D01*
X169811000Y-131172000D02*
X169811000Y-130012000D01*
X169851000Y-128052000D02*
X169851000Y-126867000D01*
X169851000Y-131197000D02*
X169851000Y-130012000D01*
X169891000Y-128052000D02*
X169891000Y-126843000D01*
X169891000Y-131221000D02*
X169891000Y-130012000D01*
X169931000Y-128052000D02*
X169931000Y-126820000D01*
X169931000Y-131244000D02*
X169931000Y-130012000D01*
X169971000Y-128052000D02*
X169971000Y-126798000D01*
X169971000Y-131266000D02*
X169971000Y-130012000D01*
X170011000Y-128052000D02*
X170011000Y-126776000D01*
X170011000Y-131288000D02*
X170011000Y-130012000D01*
X170051000Y-128052000D02*
X170051000Y-126756000D01*
X170051000Y-131308000D02*
X170051000Y-130012000D01*
X170091000Y-128052000D02*
X170091000Y-126736000D01*
X170091000Y-131328000D02*
X170091000Y-130012000D01*
X170131000Y-128052000D02*
X170131000Y-126717000D01*
X170131000Y-131347000D02*
X170131000Y-130012000D01*
X170171000Y-128052000D02*
X170171000Y-126699000D01*
X170171000Y-131365000D02*
X170171000Y-130012000D01*
X170211000Y-128052000D02*
X170211000Y-126682000D01*
X170211000Y-131382000D02*
X170211000Y-130012000D01*
X170251000Y-128052000D02*
X170251000Y-126666000D01*
X170251000Y-131398000D02*
X170251000Y-130012000D01*
X170291000Y-128052000D02*
X170291000Y-126650000D01*
X170291000Y-131414000D02*
X170291000Y-130012000D01*
X170331000Y-128052000D02*
X170331000Y-126636000D01*
X170331000Y-131428000D02*
X170331000Y-130012000D01*
X170371000Y-128052000D02*
X170371000Y-126622000D01*
X170371000Y-131442000D02*
X170371000Y-130012000D01*
X170411000Y-128052000D02*
X170411000Y-126608000D01*
X170411000Y-131456000D02*
X170411000Y-130012000D01*
X170451000Y-128052000D02*
X170451000Y-126596000D01*
X170451000Y-131468000D02*
X170451000Y-130012000D01*
X170491000Y-128052000D02*
X170491000Y-126584000D01*
X170491000Y-131480000D02*
X170491000Y-130012000D01*
X170532000Y-128052000D02*
X170532000Y-126572000D01*
X170532000Y-131492000D02*
X170532000Y-130012000D01*
X170572000Y-128052000D02*
X170572000Y-126562000D01*
X170572000Y-131502000D02*
X170572000Y-130012000D01*
X170612000Y-128052000D02*
X170612000Y-126552000D01*
X170612000Y-131512000D02*
X170612000Y-130012000D01*
X170652000Y-128052000D02*
X170652000Y-126543000D01*
X170652000Y-131521000D02*
X170652000Y-130012000D01*
X170692000Y-128052000D02*
X170692000Y-126534000D01*
X170692000Y-131530000D02*
X170692000Y-130012000D01*
X170732000Y-128052000D02*
X170732000Y-126526000D01*
X170732000Y-131538000D02*
X170732000Y-130012000D01*
X170772000Y-128052000D02*
X170772000Y-126519000D01*
X170772000Y-131545000D02*
X170772000Y-130012000D01*
X170812000Y-128052000D02*
X170812000Y-126513000D01*
X170812000Y-131551000D02*
X170812000Y-130012000D01*
X170852000Y-128052000D02*
X170852000Y-126507000D01*
X170852000Y-131557000D02*
X170852000Y-130012000D01*
X170892000Y-128052000D02*
X170892000Y-126501000D01*
X170892000Y-131563000D02*
X170892000Y-130012000D01*
X170932000Y-128052000D02*
X170932000Y-126497000D01*
X170932000Y-131567000D02*
X170932000Y-130012000D01*
X170972000Y-128052000D02*
X170972000Y-126493000D01*
X170972000Y-131571000D02*
X170972000Y-130012000D01*
X171012000Y-128052000D02*
X171012000Y-126489000D01*
X171012000Y-131575000D02*
X171012000Y-130012000D01*
X171052000Y-128052000D02*
X171052000Y-126486000D01*
X171052000Y-131578000D02*
X171052000Y-130012000D01*
X171092000Y-128052000D02*
X171092000Y-126484000D01*
X171092000Y-131580000D02*
X171092000Y-130012000D01*
X171132000Y-128052000D02*
X171132000Y-126483000D01*
X171132000Y-131581000D02*
X171132000Y-130012000D01*
X171172000Y-128052000D02*
X171172000Y-126482000D01*
X171172000Y-131582000D02*
X171172000Y-130012000D01*
X171212000Y-131582000D02*
X171212000Y-126482000D01*
X168906278Y-130211723D02*
G75*
G03*
X173517580Y-130212000I2305722J1179723D01*
G01*
X168906278Y-127852277D02*
G75*
G02*
X173517580Y-127852000I2305722J-1179723D01*
G01*
X168906278Y-127852277D02*
G75*
G03*
X168906420Y-130212000I2305722J-1179723D01*
G01*
%TO.C,- +*%
X170732000Y-145332000D02*
X170732000Y-143212000D01*
X168672000Y-145332000D02*
X170732000Y-145332000D01*
X168672000Y-143212000D02*
X170732000Y-143212000D01*
X168672000Y-145332000D02*
X168672000Y-143212000D01*
X167672000Y-145332000D02*
X166612000Y-145332000D01*
X166612000Y-145332000D02*
X166612000Y-144272000D01*
%TO.C,R1*%
X170450000Y-110944000D02*
X172450000Y-110944000D01*
X172450000Y-113084000D02*
X170450000Y-113084000D01*
%TO.C,R3*%
X170450000Y-101292000D02*
X172450000Y-101292000D01*
X172450000Y-103432000D02*
X170450000Y-103432000D01*
%TO.C,R4*%
X177054000Y-110944000D02*
X179054000Y-110944000D01*
X179054000Y-113084000D02*
X177054000Y-113084000D01*
%TO.C,R5*%
X172450000Y-106480000D02*
X170450000Y-106480000D01*
X170450000Y-104340000D02*
X172450000Y-104340000D01*
%TO.C,R6*%
X172450000Y-116132000D02*
X170450000Y-116132000D01*
X170450000Y-113992000D02*
X172450000Y-113992000D01*
%TO.C,R7*%
X177054000Y-113992000D02*
X179054000Y-113992000D01*
X179054000Y-116132000D02*
X177054000Y-116132000D01*
%TO.C,TX RX*%
X175780000Y-145332000D02*
X175780000Y-143212000D01*
X173720000Y-145332000D02*
X175780000Y-145332000D01*
X173720000Y-143212000D02*
X175780000Y-143212000D01*
X173720000Y-145332000D02*
X173720000Y-143212000D01*
X172720000Y-145332000D02*
X171660000Y-145332000D01*
X171660000Y-145332000D02*
X171660000Y-144272000D01*
%TO.C,U2*%
D15*
X174264380Y-122839523D02*
X174264380Y-123357619D01*
X174294857Y-123418571D01*
X174325333Y-123449047D01*
X174386285Y-123479523D01*
X174508190Y-123479523D01*
X174569142Y-123449047D01*
X174599619Y-123418571D01*
X174630095Y-123357619D01*
X174630095Y-122839523D01*
X174904380Y-122900476D02*
X174934857Y-122870000D01*
X174995809Y-122839523D01*
X175148190Y-122839523D01*
X175209142Y-122870000D01*
X175239619Y-122900476D01*
X175270095Y-122961428D01*
X175270095Y-123022380D01*
X175239619Y-123113809D01*
X174873904Y-123479523D01*
X175270095Y-123479523D01*
%TO.C,L R*%
D10*
X180162285Y-142692380D02*
X179590857Y-142692380D01*
X179590857Y-141692380D01*
X182162285Y-142692380D02*
X181762285Y-142216190D01*
X181476571Y-142692380D02*
X181476571Y-141692380D01*
X181933714Y-141692380D01*
X182048000Y-141740000D01*
X182105142Y-141787619D01*
X182162285Y-141882857D01*
X182162285Y-142025714D01*
X182105142Y-142120952D01*
X182048000Y-142168571D01*
X181933714Y-142216190D01*
X181476571Y-142216190D01*
%TO.C,C5*%
D15*
X177607571Y-99653285D02*
X177179000Y-99653285D01*
X177393285Y-99653285D02*
X177393285Y-98903285D01*
X177321857Y-99010428D01*
X177250428Y-99081857D01*
X177179000Y-99117571D01*
X178250428Y-99153285D02*
X178250428Y-99653285D01*
X177929000Y-99153285D02*
X177929000Y-99546142D01*
X177964714Y-99617571D01*
X178036142Y-99653285D01*
X178143285Y-99653285D01*
X178214714Y-99617571D01*
X178250428Y-99581857D01*
X178857571Y-99260428D02*
X178607571Y-99260428D01*
X178607571Y-99653285D02*
X178607571Y-98903285D01*
X178964714Y-98903285D01*
%TO.C,R8*%
X177536142Y-105249285D02*
X177536142Y-105749285D01*
X177357571Y-104963571D02*
X177179000Y-105499285D01*
X177643285Y-105499285D01*
X177857571Y-104999285D02*
X178357571Y-104999285D01*
X178036142Y-105749285D01*
X178643285Y-105749285D02*
X178643285Y-104999285D01*
X178714714Y-105463571D02*
X178929000Y-105749285D01*
X178929000Y-105249285D02*
X178643285Y-105535000D01*
%TO.C,R2*%
X177179000Y-102022714D02*
X177214714Y-101987000D01*
X177286142Y-101951285D01*
X177464714Y-101951285D01*
X177536142Y-101987000D01*
X177571857Y-102022714D01*
X177607571Y-102094142D01*
X177607571Y-102165571D01*
X177571857Y-102272714D01*
X177143285Y-102701285D01*
X177607571Y-102701285D01*
X177893285Y-102022714D02*
X177929000Y-101987000D01*
X178000428Y-101951285D01*
X178179000Y-101951285D01*
X178250428Y-101987000D01*
X178286142Y-102022714D01*
X178321857Y-102094142D01*
X178321857Y-102165571D01*
X178286142Y-102272714D01*
X177857571Y-102701285D01*
X178321857Y-102701285D01*
X178643285Y-102701285D02*
X178643285Y-101951285D01*
X178714714Y-102415571D02*
X178929000Y-102701285D01*
X178929000Y-102201285D02*
X178643285Y-102487000D01*
%TO.C,C4*%
X171003571Y-109305285D02*
X170575000Y-109305285D01*
X170789285Y-109305285D02*
X170789285Y-108555285D01*
X170717857Y-108662428D01*
X170646428Y-108733857D01*
X170575000Y-108769571D01*
X171646428Y-108805285D02*
X171646428Y-109305285D01*
X171325000Y-108805285D02*
X171325000Y-109198142D01*
X171360714Y-109269571D01*
X171432142Y-109305285D01*
X171539285Y-109305285D01*
X171610714Y-109269571D01*
X171646428Y-109233857D01*
X172253571Y-108912428D02*
X172003571Y-108912428D01*
X172003571Y-109305285D02*
X172003571Y-108555285D01*
X172360714Y-108555285D01*
%TO.C,C6*%
X171003571Y-99653285D02*
X170575000Y-99653285D01*
X170789285Y-99653285D02*
X170789285Y-98903285D01*
X170717857Y-99010428D01*
X170646428Y-99081857D01*
X170575000Y-99117571D01*
X171646428Y-99153285D02*
X171646428Y-99653285D01*
X171325000Y-99153285D02*
X171325000Y-99546142D01*
X171360714Y-99617571D01*
X171432142Y-99653285D01*
X171539285Y-99653285D01*
X171610714Y-99617571D01*
X171646428Y-99581857D01*
X172253571Y-99260428D02*
X172003571Y-99260428D01*
X172003571Y-99653285D02*
X172003571Y-98903285D01*
X172360714Y-98903285D01*
%TO.C,C7*%
X177607571Y-109305285D02*
X177179000Y-109305285D01*
X177393285Y-109305285D02*
X177393285Y-108555285D01*
X177321857Y-108662428D01*
X177250428Y-108733857D01*
X177179000Y-108769571D01*
X178250428Y-108805285D02*
X178250428Y-109305285D01*
X177929000Y-108805285D02*
X177929000Y-109198142D01*
X177964714Y-109269571D01*
X178036142Y-109305285D01*
X178143285Y-109305285D01*
X178214714Y-109269571D01*
X178250428Y-109233857D01*
X178857571Y-108912428D02*
X178607571Y-108912428D01*
X178607571Y-109305285D02*
X178607571Y-108555285D01*
X178964714Y-108555285D01*
%TO.C,C8*%
X168741285Y-121604428D02*
X168741285Y-122033000D01*
X168741285Y-121818714D02*
X167991285Y-121818714D01*
X168098428Y-121890142D01*
X168169857Y-121961571D01*
X168205571Y-122033000D01*
X168241285Y-120961571D02*
X168741285Y-120961571D01*
X168241285Y-121283000D02*
X168634142Y-121283000D01*
X168705571Y-121247285D01*
X168741285Y-121175857D01*
X168741285Y-121068714D01*
X168705571Y-120997285D01*
X168669857Y-120961571D01*
X168348428Y-120354428D02*
X168348428Y-120604428D01*
X168741285Y-120604428D02*
X167991285Y-120604428D01*
X167991285Y-120247285D01*
%TO.C,220uF*%
X176972714Y-125390714D02*
X177008428Y-125355000D01*
X177079857Y-125319285D01*
X177258428Y-125319285D01*
X177329857Y-125355000D01*
X177365571Y-125390714D01*
X177401285Y-125462142D01*
X177401285Y-125533571D01*
X177365571Y-125640714D01*
X176937000Y-126069285D01*
X177401285Y-126069285D01*
X177687000Y-125390714D02*
X177722714Y-125355000D01*
X177794142Y-125319285D01*
X177972714Y-125319285D01*
X178044142Y-125355000D01*
X178079857Y-125390714D01*
X178115571Y-125462142D01*
X178115571Y-125533571D01*
X178079857Y-125640714D01*
X177651285Y-126069285D01*
X178115571Y-126069285D01*
X178579857Y-125319285D02*
X178651285Y-125319285D01*
X178722714Y-125355000D01*
X178758428Y-125390714D01*
X178794142Y-125462142D01*
X178829857Y-125605000D01*
X178829857Y-125783571D01*
X178794142Y-125926428D01*
X178758428Y-125997857D01*
X178722714Y-126033571D01*
X178651285Y-126069285D01*
X178579857Y-126069285D01*
X178508428Y-126033571D01*
X178472714Y-125997857D01*
X178437000Y-125926428D01*
X178401285Y-125783571D01*
X178401285Y-125605000D01*
X178437000Y-125462142D01*
X178472714Y-125390714D01*
X178508428Y-125355000D01*
X178579857Y-125319285D01*
X179472714Y-125569285D02*
X179472714Y-126069285D01*
X179151285Y-125569285D02*
X179151285Y-125962142D01*
X179187000Y-126033571D01*
X179258428Y-126069285D01*
X179365571Y-126069285D01*
X179437000Y-126033571D01*
X179472714Y-125997857D01*
X180079857Y-125676428D02*
X179829857Y-125676428D01*
X179829857Y-126069285D02*
X179829857Y-125319285D01*
X180187000Y-125319285D01*
X169860714Y-125390714D02*
X169896428Y-125355000D01*
X169967857Y-125319285D01*
X170146428Y-125319285D01*
X170217857Y-125355000D01*
X170253571Y-125390714D01*
X170289285Y-125462142D01*
X170289285Y-125533571D01*
X170253571Y-125640714D01*
X169825000Y-126069285D01*
X170289285Y-126069285D01*
X170575000Y-125390714D02*
X170610714Y-125355000D01*
X170682142Y-125319285D01*
X170860714Y-125319285D01*
X170932142Y-125355000D01*
X170967857Y-125390714D01*
X171003571Y-125462142D01*
X171003571Y-125533571D01*
X170967857Y-125640714D01*
X170539285Y-126069285D01*
X171003571Y-126069285D01*
X171467857Y-125319285D02*
X171539285Y-125319285D01*
X171610714Y-125355000D01*
X171646428Y-125390714D01*
X171682142Y-125462142D01*
X171717857Y-125605000D01*
X171717857Y-125783571D01*
X171682142Y-125926428D01*
X171646428Y-125997857D01*
X171610714Y-126033571D01*
X171539285Y-126069285D01*
X171467857Y-126069285D01*
X171396428Y-126033571D01*
X171360714Y-125997857D01*
X171325000Y-125926428D01*
X171289285Y-125783571D01*
X171289285Y-125605000D01*
X171325000Y-125462142D01*
X171360714Y-125390714D01*
X171396428Y-125355000D01*
X171467857Y-125319285D01*
X172360714Y-125569285D02*
X172360714Y-126069285D01*
X172039285Y-125569285D02*
X172039285Y-125962142D01*
X172075000Y-126033571D01*
X172146428Y-126069285D01*
X172253571Y-126069285D01*
X172325000Y-126033571D01*
X172360714Y-125997857D01*
X172967857Y-125676428D02*
X172717857Y-125676428D01*
X172717857Y-126069285D02*
X172717857Y-125319285D01*
X173075000Y-125319285D01*
%TO.C,- +*%
D10*
X167275047Y-142311428D02*
X168036952Y-142311428D01*
X169275047Y-142311428D02*
X170036952Y-142311428D01*
X169656000Y-142692380D02*
X169656000Y-141930476D01*
%TO.C,R1*%
D15*
X170575000Y-111674714D02*
X170610714Y-111639000D01*
X170682142Y-111603285D01*
X170860714Y-111603285D01*
X170932142Y-111639000D01*
X170967857Y-111674714D01*
X171003571Y-111746142D01*
X171003571Y-111817571D01*
X170967857Y-111924714D01*
X170539285Y-112353285D01*
X171003571Y-112353285D01*
X171289285Y-111674714D02*
X171325000Y-111639000D01*
X171396428Y-111603285D01*
X171575000Y-111603285D01*
X171646428Y-111639000D01*
X171682142Y-111674714D01*
X171717857Y-111746142D01*
X171717857Y-111817571D01*
X171682142Y-111924714D01*
X171253571Y-112353285D01*
X171717857Y-112353285D01*
X172039285Y-112353285D02*
X172039285Y-111603285D01*
X172110714Y-112067571D02*
X172325000Y-112353285D01*
X172325000Y-111853285D02*
X172039285Y-112139000D01*
%TO.C,R3*%
X170575000Y-102022714D02*
X170610714Y-101987000D01*
X170682142Y-101951285D01*
X170860714Y-101951285D01*
X170932142Y-101987000D01*
X170967857Y-102022714D01*
X171003571Y-102094142D01*
X171003571Y-102165571D01*
X170967857Y-102272714D01*
X170539285Y-102701285D01*
X171003571Y-102701285D01*
X171289285Y-102022714D02*
X171325000Y-101987000D01*
X171396428Y-101951285D01*
X171575000Y-101951285D01*
X171646428Y-101987000D01*
X171682142Y-102022714D01*
X171717857Y-102094142D01*
X171717857Y-102165571D01*
X171682142Y-102272714D01*
X171253571Y-102701285D01*
X171717857Y-102701285D01*
X172039285Y-102701285D02*
X172039285Y-101951285D01*
X172110714Y-102415571D02*
X172325000Y-102701285D01*
X172325000Y-102201285D02*
X172039285Y-102487000D01*
%TO.C,R4*%
X177179000Y-111674714D02*
X177214714Y-111639000D01*
X177286142Y-111603285D01*
X177464714Y-111603285D01*
X177536142Y-111639000D01*
X177571857Y-111674714D01*
X177607571Y-111746142D01*
X177607571Y-111817571D01*
X177571857Y-111924714D01*
X177143285Y-112353285D01*
X177607571Y-112353285D01*
X177893285Y-111674714D02*
X177929000Y-111639000D01*
X178000428Y-111603285D01*
X178179000Y-111603285D01*
X178250428Y-111639000D01*
X178286142Y-111674714D01*
X178321857Y-111746142D01*
X178321857Y-111817571D01*
X178286142Y-111924714D01*
X177857571Y-112353285D01*
X178321857Y-112353285D01*
X178643285Y-112353285D02*
X178643285Y-111603285D01*
X178714714Y-112067571D02*
X178929000Y-112353285D01*
X178929000Y-111853285D02*
X178643285Y-112139000D01*
%TO.C,R5*%
X170932142Y-105249285D02*
X170932142Y-105749285D01*
X170753571Y-104963571D02*
X170575000Y-105499285D01*
X171039285Y-105499285D01*
X171253571Y-104999285D02*
X171753571Y-104999285D01*
X171432142Y-105749285D01*
X172039285Y-105749285D02*
X172039285Y-104999285D01*
X172110714Y-105463571D02*
X172325000Y-105749285D01*
X172325000Y-105249285D02*
X172039285Y-105535000D01*
%TO.C,R6*%
X170932142Y-114901285D02*
X170932142Y-115401285D01*
X170753571Y-114615571D02*
X170575000Y-115151285D01*
X171039285Y-115151285D01*
X171253571Y-114651285D02*
X171753571Y-114651285D01*
X171432142Y-115401285D01*
X172039285Y-115401285D02*
X172039285Y-114651285D01*
X172110714Y-115115571D02*
X172325000Y-115401285D01*
X172325000Y-114901285D02*
X172039285Y-115187000D01*
%TO.C,R7*%
X177536142Y-114901285D02*
X177536142Y-115401285D01*
X177357571Y-114615571D02*
X177179000Y-115151285D01*
X177643285Y-115151285D01*
X177857571Y-114651285D02*
X178357571Y-114651285D01*
X178036142Y-115401285D01*
X178643285Y-115401285D02*
X178643285Y-114651285D01*
X178714714Y-115115571D02*
X178929000Y-115401285D01*
X178929000Y-114901285D02*
X178643285Y-115187000D01*
%TO.C,TX RX*%
D10*
X172040761Y-141801904D02*
X172497904Y-141801904D01*
X172269333Y-142601904D02*
X172269333Y-141801904D01*
X172688380Y-141801904D02*
X173221714Y-142601904D01*
X173221714Y-141801904D02*
X172688380Y-142601904D01*
X174593142Y-142601904D02*
X174326476Y-142220952D01*
X174136000Y-142601904D02*
X174136000Y-141801904D01*
X174440761Y-141801904D01*
X174516952Y-141840000D01*
X174555047Y-141878095D01*
X174593142Y-141954285D01*
X174593142Y-142068571D01*
X174555047Y-142144761D01*
X174516952Y-142182857D01*
X174440761Y-142220952D01*
X174136000Y-142220952D01*
X174859809Y-141801904D02*
X175393142Y-142601904D01*
X175393142Y-141801904D02*
X174859809Y-142601904D01*
%TD*%
M02*
