%TF.GenerationSoftware,KiCad,Pcbnew,(5.1.8)-1*%
%TF.CreationDate,2020-11-16T23:50:31-05:00*%
%TF.ProjectId,podemu_customboard,706f6465-6d75-45f6-9375-73746f6d626f,rev?*%
%TF.SameCoordinates,Original*%
%TF.FileFunction,Soldermask,Top*%
%TF.FilePolarity,Negative*%
%FSLAX46Y46*%
G04 Gerber Fmt 4.6, Leading zero omitted, Abs format (unit mm)*
G04 Created by KiCad (PCBNEW (5.1.8)-1) date 2020-11-16 23:50:31*
%MOMM*%
%LPD*%
G01*
G04 APERTURE LIST*
%ADD10C,0.010000*%
%ADD11R,1.570000X1.880000*%
%ADD12O,1.350000X1.350000*%
%ADD13R,1.350000X1.350000*%
%ADD14R,1.000000X1.600000*%
%ADD15R,0.900000X1.700000*%
%ADD16R,1.600000X1.000000*%
%ADD17C,1.600000*%
%ADD18R,1.600000X1.600000*%
G04 APERTURE END LIST*
D10*
%TO.C,U2*%
G36*
X176002000Y-119704000D02*
G01*
X177702000Y-119704000D01*
X177702000Y-120104000D01*
X176002000Y-120104000D01*
X176002000Y-119704000D01*
G37*
X176002000Y-119704000D02*
X177702000Y-119704000D01*
X177702000Y-120104000D01*
X176002000Y-120104000D01*
X176002000Y-119704000D01*
G36*
X176002000Y-120204000D02*
G01*
X177702000Y-120204000D01*
X177702000Y-120604000D01*
X176002000Y-120604000D01*
X176002000Y-120204000D01*
G37*
X176002000Y-120204000D02*
X177702000Y-120204000D01*
X177702000Y-120604000D01*
X176002000Y-120604000D01*
X176002000Y-120204000D01*
G36*
X176002000Y-120704000D02*
G01*
X177702000Y-120704000D01*
X177702000Y-121104000D01*
X176002000Y-121104000D01*
X176002000Y-120704000D01*
G37*
X176002000Y-120704000D02*
X177702000Y-120704000D01*
X177702000Y-121104000D01*
X176002000Y-121104000D01*
X176002000Y-120704000D01*
G36*
X176002000Y-121204000D02*
G01*
X177702000Y-121204000D01*
X177702000Y-121604000D01*
X176002000Y-121604000D01*
X176002000Y-121204000D01*
G37*
X176002000Y-121204000D02*
X177702000Y-121204000D01*
X177702000Y-121604000D01*
X176002000Y-121604000D01*
X176002000Y-121204000D01*
G36*
X176002000Y-121704000D02*
G01*
X177702000Y-121704000D01*
X177702000Y-122104000D01*
X176002000Y-122104000D01*
X176002000Y-121704000D01*
G37*
X176002000Y-121704000D02*
X177702000Y-121704000D01*
X177702000Y-122104000D01*
X176002000Y-122104000D01*
X176002000Y-121704000D01*
G36*
X171802000Y-121704000D02*
G01*
X173502000Y-121704000D01*
X173502000Y-122104000D01*
X171802000Y-122104000D01*
X171802000Y-121704000D01*
G37*
X171802000Y-121704000D02*
X173502000Y-121704000D01*
X173502000Y-122104000D01*
X171802000Y-122104000D01*
X171802000Y-121704000D01*
G36*
X171802000Y-121204000D02*
G01*
X173502000Y-121204000D01*
X173502000Y-121604000D01*
X171802000Y-121604000D01*
X171802000Y-121204000D01*
G37*
X171802000Y-121204000D02*
X173502000Y-121204000D01*
X173502000Y-121604000D01*
X171802000Y-121604000D01*
X171802000Y-121204000D01*
G36*
X171802000Y-120704000D02*
G01*
X173502000Y-120704000D01*
X173502000Y-121104000D01*
X171802000Y-121104000D01*
X171802000Y-120704000D01*
G37*
X171802000Y-120704000D02*
X173502000Y-120704000D01*
X173502000Y-121104000D01*
X171802000Y-121104000D01*
X171802000Y-120704000D01*
G36*
X171802000Y-120204000D02*
G01*
X173502000Y-120204000D01*
X173502000Y-120604000D01*
X171802000Y-120604000D01*
X171802000Y-120204000D01*
G37*
X171802000Y-120204000D02*
X173502000Y-120204000D01*
X173502000Y-120604000D01*
X171802000Y-120604000D01*
X171802000Y-120204000D01*
G36*
X171802000Y-119704000D02*
G01*
X173502000Y-119704000D01*
X173502000Y-120104000D01*
X171802000Y-120104000D01*
X171802000Y-119704000D01*
G37*
X171802000Y-119704000D02*
X173502000Y-119704000D01*
X173502000Y-120104000D01*
X171802000Y-120104000D01*
X171802000Y-119704000D01*
%TD*%
D11*
%TO.C,U2*%
X174752000Y-120904000D03*
%TD*%
D12*
%TO.C,L R*%
X181832000Y-144272000D03*
X179832000Y-144272000D03*
D13*
X177832000Y-144272000D03*
%TD*%
D14*
%TO.C,C5*%
X179554000Y-99314000D03*
X176554000Y-99314000D03*
%TD*%
D15*
%TO.C,R8*%
X179504000Y-105410000D03*
X176604000Y-105410000D03*
%TD*%
%TO.C,R2*%
X179504000Y-102362000D03*
X176604000Y-102362000D03*
%TD*%
D14*
%TO.C,C4*%
X169950000Y-108966000D03*
X172950000Y-108966000D03*
%TD*%
%TO.C,C6*%
X172950000Y-99314000D03*
X169950000Y-99314000D03*
%TD*%
%TO.C,C7*%
X176554000Y-108966000D03*
X179554000Y-108966000D03*
%TD*%
D16*
%TO.C,C8*%
X168402000Y-122658000D03*
X168402000Y-119658000D03*
%TD*%
D17*
%TO.C,220uF*%
X179546000Y-129032000D03*
D18*
X177546000Y-129032000D03*
%TD*%
%TO.C,220uF*%
X172212000Y-129032000D03*
D17*
X170212000Y-129032000D03*
%TD*%
D12*
%TO.C,- +*%
X169672000Y-144272000D03*
D13*
X167672000Y-144272000D03*
%TD*%
D15*
%TO.C,R1*%
X170000000Y-112014000D03*
X172900000Y-112014000D03*
%TD*%
%TO.C,R3*%
X170000000Y-102362000D03*
X172900000Y-102362000D03*
%TD*%
%TO.C,R4*%
X176604000Y-112014000D03*
X179504000Y-112014000D03*
%TD*%
%TO.C,R5*%
X172900000Y-105410000D03*
X170000000Y-105410000D03*
%TD*%
%TO.C,R6*%
X172900000Y-115062000D03*
X170000000Y-115062000D03*
%TD*%
%TO.C,R7*%
X176604000Y-115062000D03*
X179504000Y-115062000D03*
%TD*%
D12*
%TO.C,TX RX*%
X174720000Y-144272000D03*
D13*
X172720000Y-144272000D03*
%TD*%
M02*
