%TF.GenerationSoftware,KiCad,Pcbnew,(5.1.8)-1*%
%TF.CreationDate,2020-11-16T23:50:31-05:00*%
%TF.ProjectId,podemu_customboard,706f6465-6d75-45f6-9375-73746f6d626f,rev?*%
%TF.SameCoordinates,Original*%
%TF.FileFunction,Soldermask,Bot*%
%TF.FilePolarity,Negative*%
%FSLAX46Y46*%
G04 Gerber Fmt 4.6, Leading zero omitted, Abs format (unit mm)*
G04 Created by KiCad (PCBNEW (5.1.8)-1) date 2020-11-16 23:50:31*
%MOMM*%
%LPD*%
G01*
G04 APERTURE LIST*
%ADD10R,1.000000X1.600000*%
%ADD11O,1.350000X1.350000*%
%ADD12R,1.350000X1.350000*%
%ADD13R,1.600000X0.800000*%
%ADD14R,0.800000X1.600000*%
%ADD15O,0.800000X1.000000*%
%ADD16R,1.600000X1.000000*%
%ADD17C,1.600000*%
%ADD18R,1.600000X1.600000*%
%ADD19C,0.100000*%
%ADD20R,2.000000X1.500000*%
%ADD21R,2.000000X3.800000*%
G04 APERTURE END LIST*
D10*
%TO.C,0.1uF*%
X179372000Y-136652000D03*
X182372000Y-136652000D03*
%TD*%
D11*
%TO.C,L R*%
X181832000Y-144272000D03*
X179832000Y-144272000D03*
D12*
X177832000Y-144272000D03*
%TD*%
D13*
%TO.C,RN52*%
X181502000Y-96194000D03*
X181502000Y-97394000D03*
X181502000Y-98594000D03*
X181502000Y-99794000D03*
X181502000Y-100994000D03*
X181502000Y-102194000D03*
X181502000Y-103394000D03*
X181502000Y-104594000D03*
X181502000Y-105794000D03*
X181502000Y-106994000D03*
X181502000Y-108194000D03*
X181502000Y-109394000D03*
X181502000Y-110594000D03*
X181502000Y-111794000D03*
X181502000Y-112994000D03*
X181502000Y-114194000D03*
X181502000Y-115394000D03*
D14*
X180652000Y-117394000D03*
X178952000Y-117394000D03*
X177752000Y-117394000D03*
X176552000Y-117394000D03*
X175352000Y-117394000D03*
X174152000Y-117394000D03*
X172952000Y-117394000D03*
X171752000Y-117394000D03*
X170552000Y-117394000D03*
X168852000Y-117394000D03*
D13*
X168002000Y-115394000D03*
X168002000Y-114194000D03*
X168002000Y-112994000D03*
X168002000Y-111794000D03*
X168002000Y-110594000D03*
X168002000Y-109394000D03*
X168002000Y-108194000D03*
X168002000Y-106994000D03*
X168002000Y-105794000D03*
X168002000Y-104594000D03*
X168002000Y-103394000D03*
X168002000Y-102194000D03*
X168002000Y-100994000D03*
X168002000Y-99794000D03*
X168002000Y-98594000D03*
X168002000Y-97394000D03*
X168002000Y-96194000D03*
D15*
X171252000Y-96694000D03*
X172652000Y-96694000D03*
X174052000Y-96694000D03*
X175452000Y-96694000D03*
X176852000Y-96694000D03*
X178252000Y-96694000D03*
%TD*%
D10*
%TO.C,0.1uF*%
X182372000Y-140208000D03*
X179372000Y-140208000D03*
%TD*%
D16*
%TO.C,C3*%
X176784000Y-138128000D03*
X176784000Y-135128000D03*
%TD*%
D17*
%TO.C,220uF*%
X179546000Y-129032000D03*
D18*
X177546000Y-129032000D03*
%TD*%
%TO.C,220uF*%
X172212000Y-129032000D03*
D17*
X170212000Y-129032000D03*
%TD*%
D11*
%TO.C,- +*%
X169672000Y-144272000D03*
D12*
X167672000Y-144272000D03*
%TD*%
D19*
%TO.C,CMD*%
G36*
X180632000Y-121170000D02*
G01*
X181132000Y-121170000D01*
X181132000Y-121170602D01*
X181156534Y-121170602D01*
X181205365Y-121175412D01*
X181253490Y-121184984D01*
X181300445Y-121199228D01*
X181345778Y-121218005D01*
X181389051Y-121241136D01*
X181429850Y-121268396D01*
X181467779Y-121299524D01*
X181502476Y-121334221D01*
X181533604Y-121372150D01*
X181560864Y-121412949D01*
X181583995Y-121456222D01*
X181602772Y-121501555D01*
X181617016Y-121548510D01*
X181626588Y-121596635D01*
X181631398Y-121645466D01*
X181631398Y-121670000D01*
X181632000Y-121670000D01*
X181632000Y-122170000D01*
X181631398Y-122170000D01*
X181631398Y-122194534D01*
X181626588Y-122243365D01*
X181617016Y-122291490D01*
X181602772Y-122338445D01*
X181583995Y-122383778D01*
X181560864Y-122427051D01*
X181533604Y-122467850D01*
X181502476Y-122505779D01*
X181467779Y-122540476D01*
X181429850Y-122571604D01*
X181389051Y-122598864D01*
X181345778Y-122621995D01*
X181300445Y-122640772D01*
X181253490Y-122655016D01*
X181205365Y-122664588D01*
X181156534Y-122669398D01*
X181132000Y-122669398D01*
X181132000Y-122670000D01*
X180632000Y-122670000D01*
X180632000Y-121170000D01*
G37*
G36*
X179832000Y-122669398D02*
G01*
X179807466Y-122669398D01*
X179758635Y-122664588D01*
X179710510Y-122655016D01*
X179663555Y-122640772D01*
X179618222Y-122621995D01*
X179574949Y-122598864D01*
X179534150Y-122571604D01*
X179496221Y-122540476D01*
X179461524Y-122505779D01*
X179430396Y-122467850D01*
X179403136Y-122427051D01*
X179380005Y-122383778D01*
X179361228Y-122338445D01*
X179346984Y-122291490D01*
X179337412Y-122243365D01*
X179332602Y-122194534D01*
X179332602Y-122170000D01*
X179332000Y-122170000D01*
X179332000Y-121670000D01*
X179332602Y-121670000D01*
X179332602Y-121645466D01*
X179337412Y-121596635D01*
X179346984Y-121548510D01*
X179361228Y-121501555D01*
X179380005Y-121456222D01*
X179403136Y-121412949D01*
X179430396Y-121372150D01*
X179461524Y-121334221D01*
X179496221Y-121299524D01*
X179534150Y-121268396D01*
X179574949Y-121241136D01*
X179618222Y-121218005D01*
X179663555Y-121199228D01*
X179710510Y-121184984D01*
X179758635Y-121175412D01*
X179807466Y-121170602D01*
X179832000Y-121170602D01*
X179832000Y-121170000D01*
X180332000Y-121170000D01*
X180332000Y-122670000D01*
X179832000Y-122670000D01*
X179832000Y-122669398D01*
G37*
%TD*%
D20*
%TO.C,AMS1117*%
X173736000Y-135876000D03*
X173736000Y-140476000D03*
X173736000Y-138176000D03*
D21*
X167436000Y-138176000D03*
%TD*%
D11*
%TO.C,TX RX*%
X174720000Y-144272000D03*
D12*
X172720000Y-144272000D03*
%TD*%
M02*
