M48
; DRILL file {KiCad (5.1.8)-1} date 11/16/20 23:34:24
; FORMAT={-:-/ absolute / inch / decimal}
; #@! TF.CreationDate,2020-11-16T23:34:24-05:00
; #@! TF.GenerationSoftware,Kicad,Pcbnew,(5.1.8)-1
; #@! TF.FileFunction,Plated,1,2,PTH
FMAT,2
INCH
T1C0.0079
T2C0.0157
T3C0.0315
%
G90
G05
T1
X6.8623Y-4.7364
X6.8623Y-4.7836
X6.88Y-4.76
X6.8977Y-4.7364
X6.8977Y-4.7836
T2
X6.58Y-4.62
X6.58Y-4.77
X6.58Y-4.91
X6.58Y-5.06
X6.58Y-5.23
X6.58Y-5.58
X6.69Y-3.83
X6.69Y-5.43
X6.6909Y-3.9691
X6.7Y-4.22
X6.75Y-3.9102
X6.752Y-4.54
X6.76Y-5.23
X6.78Y-4.69
X6.8091Y-4.2309
X6.82Y-4.89
X6.86Y-4.98
X6.86Y-5.25
X6.87Y-4.84
X6.88Y-3.89
X6.88Y-3.98
X6.89Y-4.22
X6.89Y-4.31
X6.89Y-4.41
X6.89Y-4.5
X6.89Y-5.35
X6.91Y-5.29
X6.91Y-5.48
X6.95Y-5.57
X6.96Y-5.38
X6.98Y-4.69
X7.01Y-5.22
X7.02Y-4.68
X7.04Y-4.73
X7.08Y-3.82
X7.08Y-4.87
X7.11Y-4.97
X7.13Y-5.21
X7.17Y-4.68
X7.18Y-5.25
T3
X6.6013Y-5.68
X6.68Y-5.68
X7.0013Y-5.68
X7.08Y-5.68
X7.1587Y-5.68
X6.7013Y-5.08
X6.78Y-5.08
X6.99Y-5.08
X7.0687Y-5.08
X6.8Y-5.68
X6.8787Y-5.68
T0
M30
